<svg width="337" height="20" viewBox="0 0 337 20" fill="none" xmlns="http://www.w3.org/2000/svg">
<g clip-path="url(#clip0_7_318)">
<path d="M9.07088 1.61595C9.41462 0.794684 10.5854 0.794685 10.9291 1.61595L12.9579 6.46318C13.1029 6.80941 13.4306 7.04597 13.8067 7.07593L19.0727 7.49546C19.9649 7.56655 20.3267 8.673 19.6469 9.25166L15.6348 12.6669C15.3482 12.9109 15.223 13.2937 15.3106 13.6584L16.5363 18.7649C16.744 19.6301 15.7969 20.3139 15.033 19.8503L10.5245 17.1138C10.2025 16.9183 9.7975 16.9183 9.47548 17.1138L4.96699 19.8503C4.20311 20.3139 3.25596 19.6301 3.46363 18.7649L4.68942 13.6584C4.77698 13.2937 4.65182 12.9109 4.36526 12.6669L0.353062 9.25166C-0.326718 8.673 0.0350679 7.56655 0.927291 7.49546L6.19336 7.07593C6.5695 7.04597 6.89716 6.80941 7.04207 6.46318L9.07088 1.61595Z" fill="black"/>
</g>
<g clip-path="url(#clip1_7_318)">
<path d="M57.0709 1.61595C57.4146 0.794684 58.5854 0.794685 58.9291 1.61595L60.9579 6.46318C61.1029 6.80941 61.4306 7.04597 61.8067 7.07593L67.0727 7.49546C67.9649 7.56655 68.3267 8.673 67.6469 9.25166L63.6348 12.6669C63.3482 12.9109 63.223 13.2937 63.3106 13.6584L64.5363 18.7649C64.744 19.6301 63.7969 20.3139 63.033 19.8503L58.5245 17.1138C58.2025 16.9183 57.7975 16.9183 57.4755 17.1138L52.967 19.8503C52.2031 20.3139 51.256 19.6301 51.4636 18.7649L52.6894 13.6584C52.777 13.2937 52.6518 12.9109 52.3653 12.6669L48.3531 9.25166C47.6733 8.673 48.0351 7.56655 48.9273 7.49546L54.1934 7.07593C54.5695 7.04597 54.8972 6.80941 55.0421 6.46318L57.0709 1.61595Z" fill="black"/>
</g>
<g clip-path="url(#clip2_7_318)">
<path d="M105.071 1.61595C105.415 0.794684 106.585 0.794685 106.929 1.61595L108.958 6.46318C109.103 6.80941 109.431 7.04597 109.807 7.07593L115.073 7.49546C115.965 7.56655 116.327 8.673 115.647 9.25166L111.635 12.6669C111.348 12.9109 111.223 13.2937 111.311 13.6584L112.536 18.7649C112.744 19.6301 111.797 20.3139 111.033 19.8503L106.525 17.1138C106.202 16.9183 105.797 16.9183 105.475 17.1138L100.967 19.8503C100.203 20.3139 99.256 19.6301 99.4636 18.7649L100.689 13.6584C100.777 13.2937 100.652 12.9109 100.365 12.6669L96.3531 9.25166C95.6733 8.673 96.0351 7.56655 96.9273 7.49546L102.193 7.07593C102.569 7.04597 102.897 6.80941 103.042 6.46318L105.071 1.61595Z" fill="black"/>
</g>
<g clip-path="url(#clip3_7_318)">
<path d="M81.0709 1.61595C81.4146 0.794684 82.5854 0.794685 82.9291 1.61595L84.9579 6.46318C85.1029 6.80941 85.4306 7.04597 85.8067 7.07593L91.0727 7.49546C91.9649 7.56655 92.3267 8.673 91.6469 9.25166L87.6348 12.6669C87.3482 12.9109 87.223 13.2937 87.3106 13.6584L88.5363 18.7649C88.744 19.6301 87.7969 20.3139 87.033 19.8503L82.5245 17.1138C82.2025 16.9183 81.7975 16.9183 81.4755 17.1138L76.967 19.8503C76.2031 20.3139 75.256 19.6301 75.4636 18.7649L76.6894 13.6584C76.777 13.2937 76.6518 12.9109 76.3653 12.6669L72.3531 9.25166C71.6733 8.673 72.0351 7.56655 72.9273 7.49546L78.1934 7.07593C78.5695 7.04597 78.8972 6.80941 79.0421 6.46318L81.0709 1.61595Z" fill="black"/>
</g>
<g clip-path="url(#clip4_7_318)">
<path d="M33.0709 1.61595C33.4146 0.794684 34.5854 0.794685 34.9291 1.61595L36.9579 6.46318C37.1029 6.80941 37.4306 7.04597 37.8067 7.07593L43.0727 7.49546C43.9649 7.56655 44.3267 8.673 43.6469 9.25166L39.6348 12.6669C39.3482 12.9109 39.223 13.2937 39.3106 13.6584L40.5363 18.7649C40.744 19.6301 39.7969 20.3139 39.033 19.8503L34.5245 17.1138C34.2025 16.9183 33.7975 16.9183 33.4755 17.1138L28.967 19.8503C28.2031 20.3139 27.256 19.6301 27.4636 18.7649L28.6894 13.6584C28.777 13.2937 28.6518 12.9109 28.3653 12.6669L24.3531 9.25166C23.6733 8.673 24.0351 7.56655 24.9273 7.49546L30.1934 7.07593C30.5695 7.04597 30.8972 6.80941 31.0421 6.46318L33.0709 1.61595Z" fill="black"/>
</g>
<defs>
<clipPath id="clip0_7_318">
<rect width="20" height="19" fill="white" transform="translate(0 1)"/>
</clipPath>
<clipPath id="clip1_7_318">
<rect width="20" height="19" fill="white" transform="translate(48 1)"/>
</clipPath>
<clipPath id="clip2_7_318">
<rect width="20" height="19" fill="white" transform="translate(96 1)"/>
</clipPath>
<clipPath id="clip3_7_318">
<rect width="20" height="19" fill="white" transform="translate(72 1)"/>
</clipPath>
<clipPath id="clip4_7_318">
<rect width="20" height="19" fill="white" transform="translate(24 1)"/>
</clipPath>
</defs>
</svg>
