<svg width="20" height="19" viewBox="0 0 20 19" fill="none" xmlns="http://www.w3.org/2000/svg">
<g clip-path="url(#clip0_7_261)">
<path d="M9.07088 0.615946C9.41462 -0.205316 10.5854 -0.205315 10.9291 0.615948L12.9579 5.46318C13.1029 5.80941 13.4306 6.04597 13.8067 6.07593L19.0727 6.49546C19.9649 6.56655 20.3267 7.673 19.6469 8.25166L15.6348 11.6669C15.3482 11.9109 15.223 12.2937 15.3106 12.6584L16.5363 17.7649C16.744 18.6301 15.7969 19.3139 15.033 18.8503L10.5245 16.1138C10.2025 15.9183 9.7975 15.9183 9.47548 16.1138L4.96699 18.8503C4.20311 19.3139 3.25596 18.6301 3.46363 17.7649L4.68942 12.6584C4.77698 12.2937 4.65182 11.9109 4.36526 11.6669L0.353062 8.25166C-0.326718 7.673 0.0350679 6.56655 0.927291 6.49546L6.19336 6.07593C6.5695 6.04597 6.89716 5.80941 7.04207 5.46318L9.07088 0.615946Z" fill="black"/>
</g>
<defs>
<clipPath id="clip0_7_261">
<rect width="20" height="19" fill="white"/>
</clipPath>
</defs>
</svg>
