<svg width="32" height="32" viewBox="0 0 32 32" fill="none" xmlns="http://www.w3.org/2000/svg">
<path d="M0 4C0 1.79086 1.79086 0 4 0H28C30.2091 0 32 1.79086 32 4V28C32 30.2091 30.2091 32 28 32H4C1.79086 32 0 30.2091 0 28V4Z" fill="#158E5E"/>
<path d="M20.5 10H17.5C16.9477 10 16.5 10.4477 16.5 11V14H20.5C20.6137 13.9975 20.7216 14.0504 20.7892 14.1419C20.8568 14.2334 20.8758 14.352 20.84 14.46L20.1 16.66C20.0318 16.8619 19.8431 16.9984 19.63 17H16.5V24.5C16.5 24.7761 16.2761 25 16 25H13.5C13.2239 25 13 24.7761 13 24.5V17H11.5C11.2239 17 11 16.7761 11 16.5V14.5C11 14.2239 11.2239 14 11.5 14H13V11C13 8.79086 14.7909 7 17 7H20.5C20.7761 7 21 7.22386 21 7.5V9.5C21 9.77614 20.7761 10 20.5 10Z" fill="black"/>
</svg>
