<svg width="32" height="32" viewBox="0 0 32 32" fill="none" xmlns="http://www.w3.org/2000/svg">
<path d="M0 4C0 1.79086 1.79086 0 4 0H28C30.2091 0 32 1.79086 32 4V28C32 30.2091 30.2091 32 28 32H4C1.79086 32 0 30.2091 0 28V4Z" fill="#158E5E"/>
<path d="M24.9728 10.7174C24.5084 11.3369 23.947 11.8773 23.3103 12.3178C23.3103 12.4796 23.3103 12.6414 23.3103 12.8123C23.3154 15.7511 22.1415 18.5691 20.0518 20.6345C17.962 22.6999 15.1312 23.8399 12.1941 23.7989C10.496 23.8046 8.81967 23.4169 7.29642 22.6661C7.21428 22.6302 7.16131 22.549 7.16162 22.4593V22.3604C7.16162 22.2313 7.26623 22.1267 7.39527 22.1267C9.06442 22.0716 10.674 21.4929 11.9963 20.4724C10.4855 20.4419 9.12619 19.5469 8.5006 18.1707C8.46901 18.0956 8.47884 18.0093 8.52657 17.9432C8.57429 17.8771 8.653 17.8407 8.73425 17.8471C9.19342 17.8932 9.65718 17.8505 10.1002 17.7212C8.43239 17.375 7.17921 15.9904 6.99986 14.2957C6.99349 14.2144 7.02992 14.1357 7.096 14.0879C7.16207 14.0402 7.24824 14.0303 7.32338 14.062C7.77094 14.2595 8.25409 14.3635 8.74324 14.3676C7.28184 13.4085 6.65061 11.5841 7.20655 9.92622C7.26394 9.76513 7.40181 9.64612 7.5695 9.61294C7.73718 9.57975 7.90996 9.63728 8.02432 9.76439C9.99639 11.8633 12.706 13.114 15.5819 13.2528C15.5083 12.9589 15.4721 12.6568 15.4741 12.3537C15.501 10.7647 16.4842 9.34921 17.9634 8.76987C19.4425 8.19054 21.1249 8.56203 22.223 9.71044C22.9714 9.56785 23.695 9.31645 24.3707 8.96421C24.4202 8.93331 24.483 8.93331 24.5325 8.96421C24.5634 9.01373 24.5634 9.07652 24.5325 9.12604C24.2052 9.87552 23.6523 10.5041 22.9509 10.9242C23.5651 10.853 24.1685 10.7081 24.7482 10.4926C24.797 10.4594 24.8611 10.4594 24.9099 10.4926C24.9508 10.5113 24.9814 10.5471 24.9935 10.5904C25.0056 10.6337 24.998 10.6802 24.9728 10.7174Z" fill="black"/>
</svg>
