<svg width="32" height="32" viewBox="0 0 32 32" fill="none" xmlns="http://www.w3.org/2000/svg">
<path d="M0 4C0 1.79086 1.79086 0 4 0H28C30.2091 0 32 1.79086 32 4V28C32 30.2091 30.2091 32 28 32H4C1.79086 32 0 30.2091 0 28V4Z" fill="#158E5E"/>
<path fill-rule="evenodd" clip-rule="evenodd" d="M20 7H12C9.23858 7 7 9.23858 7 12V20C7 22.7614 9.23858 25 12 25H20C22.7614 25 25 22.7614 25 20V12C25 9.23858 22.7614 7 20 7ZM23.25 20C23.2445 21.7926 21.7926 23.2445 20 23.25H12C10.2074 23.2445 8.75549 21.7926 8.75 20V12C8.75549 10.2074 10.2074 8.75549 12 8.75H20C21.7926 8.75549 23.2445 10.2074 23.25 12V20ZM20.75 12.25C21.3023 12.25 21.75 11.8023 21.75 11.25C21.75 10.6977 21.3023 10.25 20.75 10.25C20.1977 10.25 19.75 10.6977 19.75 11.25C19.75 11.8023 20.1977 12.25 20.75 12.25ZM16 11.5C13.5147 11.5 11.5 13.5147 11.5 16C11.5 18.4853 13.5147 20.5 16 20.5C18.4853 20.5 20.5 18.4853 20.5 16C20.5027 14.8057 20.0294 13.6596 19.1849 12.8151C18.3404 11.9706 17.1943 11.4973 16 11.5ZM13.25 16C13.25 17.5188 14.4812 18.75 16 18.75C17.5188 18.75 18.75 17.5188 18.75 16C18.75 14.4812 17.5188 13.25 16 13.25C14.4812 13.25 13.25 14.4812 13.25 16Z" fill="black"/>
</svg>
