<svg width="48" height="48" viewBox="0 0 48 48" fill="none" xmlns="http://www.w3.org/2000/svg">
<path d="M0 24C0 10.7452 10.7452 0 24 0C37.2548 0 48 10.7452 48 24C48 37.2548 37.2548 48 24 48C10.7452 48 0 37.2548 0 24Z" fill="#158E5E"/>
<path d="M32 22.6875C32.4167 22.6875 32.8542 22.7083 33.3125 22.75V13.3125C33.3125 12.6042 33.0417 12 32.5 11.5C32 10.9583 31.3958 10.6875 30.6875 10.6875H14.6875C13.9375 10.6875 13.2917 10.9583 12.75 11.5C12.25 12 12 12.6042 12 13.3125V34.6875C12 35.3958 12.25 36.0208 12.75 36.5625C13.2917 37.0625 13.9375 37.3125 14.6875 37.3125H24.375C23.8333 36.5625 23.4167 35.75 23.125 34.875C22.8333 33.9583 22.6875 33 22.6875 32C22.6875 30.7083 22.9167 29.5 23.375 28.375C23.875 27.25 24.5417 26.2708 25.375 25.4375C26.25 24.5625 27.25 23.8958 28.375 23.4375C29.5 22.9375 30.7083 22.6875 32 22.6875ZM17.3125 22.6875V13.3125H24V22.6875L20.6875 20.6875L17.3125 22.6875ZM32 25.3125C30.7917 25.3125 29.6667 25.625 28.625 26.25C27.625 26.8333 26.8125 27.6458 26.1875 28.6875C25.6042 29.6875 25.3125 30.7917 25.3125 32C25.3125 33.2083 25.6042 34.3333 26.1875 35.375C26.8125 36.375 27.625 37.1875 28.625 37.8125C29.6667 38.3958 30.7917 38.6875 32 38.6875C33.2083 38.6875 34.3125 38.3958 35.3125 37.8125C36.3542 37.1875 37.1667 36.375 37.75 35.375C38.375 34.3333 38.6875 33.2083 38.6875 32C38.6875 30.7917 38.375 29.6875 37.75 28.6875C37.1667 27.6458 36.3542 26.8333 35.3125 26.25C34.3125 25.625 33.2083 25.3125 32 25.3125ZM30.3125 35.3125V28.6875L35.6875 32L30.3125 35.3125Z" fill="white"/>
</svg>
